<?plantuml 1.2026.2beta3?><svg xmlns="http://www.w3.org/2000/svg" xmlns:xlink="http://www.w3.org/1999/xlink" contentStyleType="text/css" data-diagram-type="ACTIVITY" height="635px" preserveAspectRatio="none" style="width:794px;height:635px;background:#FFFFFF;" version="1.1" viewBox="0 0 794 635" width="794px" zoomAndPan="magnify"><title>The Algorithmic Funnel</title><defs/><g><g class="title" data-source-line="2"><text fill="#000000" font-family="Verdana" font-size="22" font-weight="bold" lengthAdjust="spacing" textLength="288.8896" x="251.5046" y="35.4209">The Algorithmic Funnel</text></g><ellipse cx="536.9495" cy="61.6094" fill="#FFFFFF" rx="10" ry="10" style="stroke:#000000;stroke-width:1;"/><rect fill="#FFFFFF" height="33.9688" rx="12.5" ry="12.5" style="stroke:#000000;stroke-width:1;" width="62.0469" x="505.926" y="91.6094"/><text fill="#000000" font-family="Verdana" font-size="12" lengthAdjust="spacing" textLength="42.0469" x="515.926" y="112.748">Upload</text><rect fill="#FFFFFF" height="33.9688" rx="12.5" ry="12.5" style="stroke:#000000;stroke-width:1;" width="199.3438" x="437.2776" y="145.5781"/><text fill="#000000" font-family="Verdana" font-size="12" lengthAdjust="spacing" textLength="179.3438" x="447.2776" y="166.7168">Wave 0: Safety &amp; Hash Check</text><polygon fill="#FFFFFF" points="521.6123,199.5469,552.2866,199.5469,564.2866,211.5469,552.2866,223.5469,521.6123,223.5469,509.6123,211.5469,521.6123,199.5469" style="stroke:#000000;stroke-width:1;"/><text fill="#000000" font-family="Verdana" font-size="11" lengthAdjust="spacing" textLength="30.6743" x="521.6123" y="215.355">Pass?</text><text fill="#000000" font-family="Verdana" font-size="11" lengthAdjust="spacing" textLength="19.0083" x="490.604" y="208.9526">yes</text><text fill="#000000" font-family="Verdana" font-size="11" lengthAdjust="spacing" textLength="13.7017" x="564.2866" y="208.9526">no</text><path d="M486.1797,237.9648 L486.1797,246.5313 L466.1797,250.5313 L486.1797,254.5313 L486.1797,263.0977 A0,0 0 0 0 486.1797,263.0977 L620.8599,263.0977 A0,0 0 0 0 620.8599,263.0977 L620.8599,247.9648 L610.8599,237.9648 L486.1797,237.9648 A0,0 0 0 0 486.1797,237.9648" fill="#FFFFFF" style="stroke:#000000;stroke-width:1;"/><path d="M610.8599,237.9648 L610.8599,247.9648 L620.8599,247.9648 L610.8599,237.9648" fill="#FFFFFF" style="stroke:#000000;stroke-width:1;"/><text fill="#000000" font-family="Verdana" font-size="13" lengthAdjust="spacing" textLength="113.6802" x="492.1797" y="255.0317">Calibration Phase</text><rect fill="#FFFFFF" height="33.9688" rx="12.5" ry="12.5" style="stroke:#000000;stroke-width:1;" width="214.3203" x="251.8594" y="233.5469"/><text fill="#000000" font-family="Verdana" font-size="12" lengthAdjust="spacing" textLength="194.3203" x="261.8594" y="254.6855">Wave 1: Seed Data (~500 imps)</text><polygon fill="#FFFFFF" points="320.9922,287.5156,397.0469,287.5156,409.0469,299.5156,397.0469,311.5156,320.9922,311.5156,308.9922,299.5156,320.9922,287.5156" style="stroke:#000000;stroke-width:1;"/><text fill="#000000" font-family="Verdana" font-size="11" lengthAdjust="spacing" textLength="76.0547" x="320.9922" y="303.3237">VVSA &gt; 60%?</text><text fill="#000000" font-family="Verdana" font-size="11" lengthAdjust="spacing" textLength="19.0083" x="289.9839" y="296.9214">yes</text><text fill="#000000" font-family="Verdana" font-size="11" lengthAdjust="spacing" textLength="13.7017" x="409.0469" y="296.9214">no</text><path d="M310.6948,325.9336 L310.6948,334.5 L290.6948,338.5 L310.6948,342.5 L310.6948,351.0664 A0,0 0 0 0 310.6948,351.0664 L439.8462,351.0664 A0,0 0 0 0 439.8462,351.0664 L439.8462,335.9336 L429.8462,325.9336 L310.6948,325.9336 A0,0 0 0 0 310.6948,325.9336" fill="#FFFFFF" style="stroke:#000000;stroke-width:1;"/><path d="M429.8462,325.9336 L429.8462,335.9336 L439.8462,335.9336 L429.8462,325.9336" fill="#FFFFFF" style="stroke:#000000;stroke-width:1;"/><text fill="#000000" font-family="Verdana" font-size="13" lengthAdjust="spacing" textLength="108.1514" x="316.6948" y="343.0005">Validation Phase</text><rect fill="#FFFFFF" height="33.9688" rx="12.5" ry="12.5" style="stroke:#000000;stroke-width:1;" width="208.4961" x="82.1987" y="321.5156"/><text fill="#000000" font-family="Verdana" font-size="12" lengthAdjust="spacing" textLength="188.4961" x="92.1987" y="342.6543">Wave 2: Broad Test (~5k imps)</text><polygon fill="#FFFFFF" points="136.4312,375.4844,236.4624,375.4844,248.4624,387.4844,236.4624,399.4844,136.4312,399.4844,124.4312,387.4844,136.4312,375.4844" style="stroke:#000000;stroke-width:1;"/><text fill="#000000" font-family="Verdana" font-size="11" lengthAdjust="spacing" textLength="100.0313" x="136.4312" y="391.2925">Retention &gt; 80%?</text><text fill="#000000" font-family="Verdana" font-size="11" lengthAdjust="spacing" textLength="19.0083" x="105.4229" y="384.8901">yes</text><text fill="#000000" font-family="Verdana" font-size="11" lengthAdjust="spacing" textLength="13.7017" x="248.4624" y="384.8901">no</text><rect fill="#FFFFFF" height="33.9688" rx="12.5" ry="12.5" style="stroke:#000000;stroke-width:1;" width="165.7813" x="6" y="409.4844"/><text fill="#000000" font-family="Verdana" font-size="12" lengthAdjust="spacing" textLength="145.7813" x="16" y="430.623">Wave 3: Viral Expansion</text><rect fill="#FFFFFF" height="33.9688" rx="12.5" ry="12.5" style="stroke:#000000;stroke-width:1;" width="154.3965" x="11.6924" y="463.4531"/><text fill="#000000" font-family="Verdana" font-size="12" lengthAdjust="spacing" textLength="134.3965" x="21.6924" y="484.5918">Uncapped Distribution</text><rect fill="#FFFFFF" height="33.9688" rx="12.5" ry="12.5" style="stroke:#000000;stroke-width:1;" width="184.4434" x="191.7813" y="409.4844"/><text fill="#000000" font-family="Verdana" font-size="12" lengthAdjust="spacing" textLength="164.4434" x="201.7813" y="430.623">Plateau (Inventory Archive)</text><polygon fill="#FFFFFF" points="186.4468,503.4219,198.4468,515.4219,186.4468,527.4219,174.4468,515.4219,186.4468,503.4219" style="stroke:#000000;stroke-width:1;"/><rect fill="#FFFFFF" height="33.9688" rx="12.5" ry="12.5" style="stroke:#000000;stroke-width:1;" width="143.4922" x="459.8462" y="321.5156"/><text fill="#000000" font-family="Verdana" font-size="12" lengthAdjust="spacing" textLength="123.4922" x="469.8462" y="342.6543">Stop (Kill Candidate)</text><polygon fill="#FFFFFF" points="359.0195,533.4219,371.0195,545.4219,359.0195,557.4219,347.0195,545.4219,359.0195,533.4219" style="stroke:#000000;stroke-width:1;"/><rect fill="#FFFFFF" height="33.9688" rx="12.5" ry="12.5" style="stroke:#000000;stroke-width:1;" width="148.0391" x="640.8599" y="233.5469"/><text fill="#000000" font-family="Verdana" font-size="12" lengthAdjust="spacing" textLength="128.0391" x="650.8599" y="254.6855">Shadowban / 0 Views</text><polygon fill="#FFFFFF" points="536.9495,563.4219,548.9495,575.4219,536.9495,587.4219,524.9495,575.4219,536.9495,563.4219" style="stroke:#000000;stroke-width:1;"/><ellipse cx="536.9495" cy="618.4219" fill="none" rx="11" ry="11" style="stroke:#000000;stroke-width:1;"/><ellipse cx="536.9495" cy="618.4219" fill="#FFFFFF" rx="6" ry="6" style="stroke:#000000;stroke-width:1;"/><line style="stroke:#000000;stroke-width:1;" x1="536.9495" x2="536.9495" y1="71.6094" y2="91.6094"/><polygon fill="#000000" points="532.9495,81.6094,536.9495,91.6094,540.9495,81.6094,536.9495,85.6094" style="stroke:#000000;stroke-width:1;"/><line style="stroke:#000000;stroke-width:1;" x1="536.9495" x2="536.9495" y1="125.5781" y2="145.5781"/><polygon fill="#000000" points="532.9495,135.5781,536.9495,145.5781,540.9495,135.5781,536.9495,139.5781" style="stroke:#000000;stroke-width:1;"/><line style="stroke:#000000;stroke-width:1;" x1="88.8906" x2="88.8906" y1="443.4531" y2="463.4531"/><polygon fill="#000000" points="84.8906,453.4531,88.8906,463.4531,92.8906,453.4531,88.8906,457.4531" style="stroke:#000000;stroke-width:1;"/><line style="stroke:#000000;stroke-width:1;" x1="124.4312" x2="88.8906" y1="387.4844" y2="387.4844"/><line style="stroke:#000000;stroke-width:1;" x1="88.8906" x2="88.8906" y1="387.4844" y2="409.4844"/><polygon fill="#000000" points="84.8906,399.4844,88.8906,409.4844,92.8906,399.4844,88.8906,403.4844" style="stroke:#000000;stroke-width:1;"/><line style="stroke:#000000;stroke-width:1;" x1="248.4624" x2="284.0029" y1="387.4844" y2="387.4844"/><line style="stroke:#000000;stroke-width:1;" x1="284.0029" x2="284.0029" y1="387.4844" y2="409.4844"/><polygon fill="#000000" points="280.0029,399.4844,284.0029,409.4844,288.0029,399.4844,284.0029,403.4844" style="stroke:#000000;stroke-width:1;"/><line style="stroke:#000000;stroke-width:1;" x1="88.8906" x2="88.8906" y1="497.4219" y2="515.4219"/><line style="stroke:#000000;stroke-width:1;" x1="88.8906" x2="174.4468" y1="515.4219" y2="515.4219"/><polygon fill="#000000" points="164.4468,511.4219,174.4468,515.4219,164.4468,519.4219,168.4468,515.4219" style="stroke:#000000;stroke-width:1;"/><line style="stroke:#000000;stroke-width:1;" x1="284.0029" x2="284.0029" y1="443.4531" y2="515.4219"/><line style="stroke:#000000;stroke-width:1;" x1="284.0029" x2="198.4468" y1="515.4219" y2="515.4219"/><polygon fill="#000000" points="208.4468,511.4219,198.4468,515.4219,208.4468,519.4219,204.4468,515.4219" style="stroke:#000000;stroke-width:1;"/><line style="stroke:#000000;stroke-width:1;" x1="186.4468" x2="186.4468" y1="355.4844" y2="375.4844"/><polygon fill="#000000" points="182.4468,365.4844,186.4468,375.4844,190.4468,365.4844,186.4468,369.4844" style="stroke:#000000;stroke-width:1;"/><line style="stroke:#000000;stroke-width:1;" x1="308.9922" x2="186.4468" y1="299.5156" y2="299.5156"/><line style="stroke:#000000;stroke-width:1;" x1="186.4468" x2="186.4468" y1="299.5156" y2="321.5156"/><polygon fill="#000000" points="182.4468,311.5156,186.4468,321.5156,190.4468,311.5156,186.4468,315.5156" style="stroke:#000000;stroke-width:1;"/><line style="stroke:#000000;stroke-width:1;" x1="409.0469" x2="531.5923" y1="299.5156" y2="299.5156"/><line style="stroke:#000000;stroke-width:1;" x1="531.5923" x2="531.5923" y1="299.5156" y2="321.5156"/><polygon fill="#000000" points="527.5923,311.5156,531.5923,321.5156,535.5923,311.5156,531.5923,315.5156" style="stroke:#000000;stroke-width:1;"/><line style="stroke:#000000;stroke-width:1;" x1="186.4468" x2="186.4468" y1="527.4219" y2="545.4219"/><line style="stroke:#000000;stroke-width:1;" x1="186.4468" x2="347.0195" y1="545.4219" y2="545.4219"/><polygon fill="#000000" points="337.0195,541.4219,347.0195,545.4219,337.0195,549.4219,341.0195,545.4219" style="stroke:#000000;stroke-width:1;"/><line style="stroke:#000000;stroke-width:1;" x1="531.5923" x2="531.5923" y1="355.4844" y2="545.4219"/><line style="stroke:#000000;stroke-width:1;" x1="531.5923" x2="371.0195" y1="545.4219" y2="545.4219"/><polygon fill="#000000" points="381.0195,541.4219,371.0195,545.4219,381.0195,549.4219,377.0195,545.4219" style="stroke:#000000;stroke-width:1;"/><line style="stroke:#000000;stroke-width:1;" x1="359.0195" x2="359.0195" y1="267.5156" y2="287.5156"/><polygon fill="#000000" points="355.0195,277.5156,359.0195,287.5156,363.0195,277.5156,359.0195,281.5156" style="stroke:#000000;stroke-width:1;"/><line style="stroke:#000000;stroke-width:1;" x1="509.6123" x2="359.0195" y1="211.5469" y2="211.5469"/><line style="stroke:#000000;stroke-width:1;" x1="359.0195" x2="359.0195" y1="211.5469" y2="233.5469"/><polygon fill="#000000" points="355.0195,223.5469,359.0195,233.5469,363.0195,223.5469,359.0195,227.5469" style="stroke:#000000;stroke-width:1;"/><line style="stroke:#000000;stroke-width:1;" x1="564.2866" x2="714.8794" y1="211.5469" y2="211.5469"/><line style="stroke:#000000;stroke-width:1;" x1="714.8794" x2="714.8794" y1="211.5469" y2="233.5469"/><polygon fill="#000000" points="710.8794,223.5469,714.8794,233.5469,718.8794,223.5469,714.8794,227.5469" style="stroke:#000000;stroke-width:1;"/><line style="stroke:#000000;stroke-width:1;" x1="359.0195" x2="359.0195" y1="557.4219" y2="575.4219"/><line style="stroke:#000000;stroke-width:1;" x1="359.0195" x2="524.9495" y1="575.4219" y2="575.4219"/><polygon fill="#000000" points="514.9495,571.4219,524.9495,575.4219,514.9495,579.4219,518.9495,575.4219" style="stroke:#000000;stroke-width:1;"/><line style="stroke:#000000;stroke-width:1;" x1="714.8794" x2="714.8794" y1="267.5156" y2="575.4219"/><line style="stroke:#000000;stroke-width:1;" x1="714.8794" x2="548.9495" y1="575.4219" y2="575.4219"/><polygon fill="#000000" points="558.9495,571.4219,548.9495,575.4219,558.9495,579.4219,554.9495,575.4219" style="stroke:#000000;stroke-width:1;"/><line style="stroke:#000000;stroke-width:1;" x1="536.9495" x2="536.9495" y1="179.5469" y2="199.5469"/><polygon fill="#000000" points="532.9495,189.5469,536.9495,199.5469,540.9495,189.5469,536.9495,193.5469" style="stroke:#000000;stroke-width:1;"/><line style="stroke:#000000;stroke-width:1;" x1="536.9495" x2="536.9495" y1="587.4219" y2="607.4219"/><polygon fill="#000000" points="532.9495,597.4219,536.9495,607.4219,540.9495,597.4219,536.9495,601.4219" style="stroke:#000000;stroke-width:1;"/><?plantuml-src RP3DJW8n58NtVOhZGZEi73KQCvDW43KQDyG1N5zcBhIXT2Rj1MJZiriOGJ4ctPsVxzoUYEO5ex5ad18ZbZ7KZ9wTrTw8NfWIJqlds2eLXBoeRDJOcgfSPU-qOgGP2fgoR726PmeQVStbF5TcYcH08Tnr40aEoOP3Hm5jwYAcc2iya12Ip-iqXLaqePD7Xwk5uSrCIuO-MJFn9APs66WA7FNujkNZST535pVfwL_47dAPuTx7gHXoa2rb_WCvnemZfZgcx3WjwOs5tKxiulO_t1vu5PkC9ul7ZuPSY8byhuzSIKsplTW4yMQob8FADZ0ILn-w1fQ4QOdanQqYkFORz7ofpOg_fxEhp7I_yJYU5L8tI5wDjV7peY-UrSRQq6ztLcYgwlM47CwHnkcy3hbgVI7MV040?></g></svg>