<?plantuml 1.2026.2beta3?><svg xmlns="http://www.w3.org/2000/svg" xmlns:xlink="http://www.w3.org/1999/xlink" contentStyleType="text/css" data-diagram-type="STATE" height="702px" preserveAspectRatio="none" style="width:795px;height:702px;background:#FFFFFF;" version="1.1" viewBox="0 0 795 702" width="795px" zoomAndPan="magnify"><title>The Iterative Evaluation Loop</title><defs/><g><g class="title" data-source-line="2"><text fill="#000000" font-family="Verdana" font-size="22" font-weight="bold" lengthAdjust="spacing" textLength="366.2979" x="210.2584" y="35.4209">The Iterative Evaluation Loop</text></g><g><rect fill="#FFFFFF" height="50" rx="12.5" ry="12.5" style="stroke:#000000;stroke-width:1;" width="174.1436" x="554.71" y="138.6094"/><line style="stroke:#000000;stroke-width:1;" x1="554.71" x2="728.8536" y1="164.9063" y2="164.9063"/><text fill="#000000" font-family="Verdana" font-size="14" lengthAdjust="spacing" textLength="154.1436" x="564.71" y="156.6045">Wave 0: Safety Check</text></g><g><rect fill="#FFFFFF" height="50" rx="12.5" ry="12.5" style="stroke:#000000;stroke-width:1;" width="193.3389" x="473.11" y="265.6094"/><line style="stroke:#000000;stroke-width:1;" x1="473.11" x2="666.4489" y1="291.9063" y2="291.9063"/><text fill="#000000" font-family="Verdana" font-size="14" lengthAdjust="spacing" textLength="173.3389" x="483.11" y="283.6045">Wave 1: Seed Test (500)</text></g><g><rect fill="#FFFFFF" height="50" rx="12.5" ry="12.5" style="stroke:#000000;stroke-width:1;" width="188.1777" x="373.7" y="392.6094"/><line style="stroke:#000000;stroke-width:1;" x1="373.7" x2="561.8777" y1="418.9063" y2="418.9063"/><text fill="#000000" font-family="Verdana" font-size="14" lengthAdjust="spacing" textLength="168.1777" x="383.7" y="410.6045">Wave 2: Niche Test (5k)</text></g><g><rect fill="#FFFFFF" height="50" rx="12.5" ry="12.5" style="stroke:#000000;stroke-width:1;" width="219.5684" x="12" y="519.6094"/><line style="stroke:#000000;stroke-width:1;" x1="12" x2="231.5684" y1="545.9063" y2="545.9063"/><text fill="#000000" font-family="Verdana" font-size="14" lengthAdjust="spacing" textLength="199.5684" x="22" y="537.6045">Wave 3: Broad Test (100k+)</text></g><g><rect fill="#FFFFFF" height="50" rx="12.5" ry="12.5" style="stroke:#000000;stroke-width:1;" width="150.6484" x="392.46" y="646.6094"/><line style="stroke:#000000;stroke-width:1;" x1="392.46" x2="543.1084" y1="672.9063" y2="672.9063"/><text fill="#000000" font-family="Verdana" font-size="14" lengthAdjust="spacing" textLength="130.6484" x="402.46" y="664.6045">Inventory (Search)</text></g><g class="start_entity" data-qualified-name=".start." data-source-line="10" id="ent0002"><ellipse cx="641.78" cy="67.6094" fill="#FFFFFF" rx="10" ry="10" style="stroke:#000000;stroke-width:1;"/></g><g class="end_entity" data-qualified-name=".end." data-source-line="12" id="ent0005"><ellipse cx="712.78" cy="290.6094" fill="none" rx="11" ry="11" style="stroke:#000000;stroke-width:1;"/><ellipse cx="712.78" cy="290.6094" fill="#FFFFFF" rx="6" ry="6" style="stroke:#000000;stroke-width:1;"/></g><!--link *start* to W0--><g class="link" data-entity-1="ent0002" data-entity-2="ent0002" data-link-type="dependency" data-source-line="10" id="lnk3"><path d="M641.78,77.9694 C641.78,91.8994 641.78,112.5594 641.78,132.2594" fill="none" id="*start*-to-W0" style="stroke:#000000;stroke-width:1;"/><polygon fill="#000000" points="641.78,138.2594,645.78,129.2594,641.78,133.2594,637.78,129.2594,641.78,138.2594" style="stroke:#000000;stroke-width:1;"/></g><!--link W0 to W1--><g class="link" data-entity-1="ent0002" data-entity-2="ent0003" data-link-type="dependency" data-source-line="11" id="lnk4"><path d="M627.73,189.0094 C615.04,211.0294 599.4762,238.071 586.7962,260.071" fill="none" id="W0-to-W1" style="stroke:#000000;stroke-width:1;"/><polygon fill="#000000" points="583.8,265.2694,591.7598,259.4693,586.2968,260.9374,584.8286,255.4744,583.8,265.2694" style="stroke:#000000;stroke-width:1;"/><text fill="#000000" font-family="Verdana" font-size="13" lengthAdjust="spacing" textLength="28.793" x="611.78" y="231.6763">Safe</text></g><!--link W0 to *end*--><g class="link" data-entity-1="ent0002" data-entity-2="ent0005" data-link-type="dependency" data-source-line="12" id="lnk6"><path d="M655.64,189.0094 C671.54,216.9994 693.8462,256.2725 704.6462,275.2825" fill="none" id="W0-to-*end*" style="stroke:#000000;stroke-width:1;"/><polygon fill="#000000" points="707.61,280.4994,706.6422,270.6982,705.1401,276.152,699.6864,274.6499,707.61,280.4994" style="stroke:#000000;stroke-width:1;"/><text fill="#000000" font-family="Verdana" font-size="13" lengthAdjust="spacing" textLength="105.0347" x="682.78" y="231.6763">Copyright/Spam</text></g><!--link W1 to W2--><g class="link" data-entity-1="ent0003" data-entity-2="ent0004" data-link-type="dependency" data-source-line="14" id="lnk7"><path d="M549.88,316.0094 C531.9,338.0294 509.3944,365.6215 491.4344,387.6215" fill="none" id="W1-to-W2" style="stroke:#000000;stroke-width:1;"/><polygon fill="#000000" points="487.64,392.2694,496.4301,387.8271,490.802,388.3961,490.233,382.768,487.64,392.2694" style="stroke:#000000;stroke-width:1;"/><text fill="#000000" font-family="Verdana" font-size="13" lengthAdjust="spacing" textLength="82.9829" x="526.78" y="358.6763">VVSA &gt; 60%</text></g><!--link W1 to Inv--><g class="link" data-entity-1="ent0003" data-entity-2="ent0006" data-link-type="dependency" data-source-line="15" id="lnk8"><path d="M597.71,316.0194 C605.61,324.5394 613.28,334.7094 617.78,345.6094 C655.86,437.6994 675.9,482.3394 627.78,569.6094 C608.12,605.2794 575.3853,627.527 541.2753,643.637" fill="none" id="W1-to-Inv" style="stroke:#000000;stroke-width:1;"/><polygon fill="#000000" points="535.85,646.1994,545.6962,645.9727,540.3711,644.0641,542.2798,638.7389,535.85,646.1994" style="stroke:#000000;stroke-width:1;"/><text fill="#000000" font-family="Verdana" font-size="13" lengthAdjust="spacing" textLength="38.9175" x="657.78" y="485.6763">Failed</text></g><!--link W2 to W3--><g class="link" data-entity-1="ent0004" data-entity-2="ent0005" data-link-type="dependency" data-source-line="17" id="lnk9"><path d="M400.25,443.0094 C339.38,464.9994 255.9929,495.1203 195.0829,517.1303" fill="none" id="W2-to-W3" style="stroke:#000000;stroke-width:1;"/><polygon fill="#000000" points="189.44,519.1694,199.2637,519.8727,194.1424,517.4701,196.5449,512.3488,189.44,519.1694" style="stroke:#000000;stroke-width:1;"/><text fill="#000000" font-family="Verdana" font-size="13" lengthAdjust="spacing" textLength="73.6772" x="316.78" y="485.6763">APV &gt; 85%</text></g><!--link W2 to Inv--><g class="link" data-entity-1="ent0004" data-entity-2="ent0006" data-link-type="dependency" data-source-line="18" id="lnk10"><path d="M467.78,442.7694 C467.78,490.8194 467.78,591.8594 467.78,640.1494" fill="none" id="W2-to-Inv" style="stroke:#000000;stroke-width:1;"/><polygon fill="#000000" points="467.78,646.1494,471.78,637.1494,467.78,641.1494,463.78,637.1494,467.78,646.1494" style="stroke:#000000;stroke-width:1;"/><text fill="#000000" font-family="Verdana" font-size="13" lengthAdjust="spacing" textLength="150.1538" x="468.78" y="549.1763">Failed (The 5k Plateau)</text></g><!--link W3 to W3--><g class="link" data-entity-1="ent0005" data-entity-2="ent0005" data-link-type="dependency" data-source-line="20" id="lnk11"><path d="M231.95,533.3394 C252.28,534.7394 266.57,538.4994 266.57,544.6094 C266.57,550.7194 258.2658,554.0672 237.9358,555.4672" fill="none" id="W3-to-W3" style="stroke:#000000;stroke-width:1;"/><polygon fill="#000000" points="231.95,555.8794,241.2035,559.2516,236.9382,555.5359,240.6539,551.2705,231.95,555.8794" style="stroke:#000000;stroke-width:1;"/><text fill="#000000" font-family="Verdana" font-size="13" lengthAdjust="spacing" textLength="136.2017" x="272.57" y="549.1763">Metrics Stable (Viral)</text></g><!--link W3 to Inv--><g class="link" data-entity-1="ent0005" data-entity-2="ent0006" data-link-type="dependency" data-source-line="21" id="lnk12"><path d="M189.32,570.0094 C250.19,591.9994 333.5771,622.1203 394.4871,644.1303" fill="none" id="W3-to-Inv" style="stroke:#000000;stroke-width:1;"/><polygon fill="#000000" points="400.13,646.1694,393.0251,639.3488,395.4276,644.4701,390.3063,646.8727,400.13,646.1694" style="stroke:#000000;stroke-width:1;"/><text fill="#000000" font-family="Verdana" font-size="13" lengthAdjust="spacing" textLength="67.7676" x="316.78" y="612.6763">Saturation</text></g><?plantuml-src LT5DQuD040RW-_wAQI2WBQ6hOYaU0cbe8T2MW44FfOUfcTP5exAEWl--OuoqkItlF3lxCJUSqucWAT5KYWsN18USOCTaaKrFyDnZsScohk2rhXkbMaOcMAGeHHr1ZD_40snpoee5O0kflYAU4A8Z7AXbS4AjtKbvLygFuDraSl255HVbNwaWWYTRuzpCqxguky1WXhkgfufhEu0J4zeidu34IdtSVi9gjHwlcEffvS7qX3aOIGJRkXci-SdvFcxmf9Imi_QbbYJn1jRme9TpBBqbVq5Jqb6iFzb0iiq-4VeOBkVqFmLd_EcmW7qfDyVEbRt1tzutOcko5cB6BvcAanYBfJkJgL6CtDdpS7u1?></g></svg>