<?plantuml 1.2026.2beta3?><svg xmlns="http://www.w3.org/2000/svg" xmlns:xlink="http://www.w3.org/1999/xlink" contentStyleType="text/css" data-diagram-type="DESCRIPTION" height="228px" preserveAspectRatio="none" style="width:1777px;height:228px;background:#FFFFFF;" version="1.1" viewBox="0 0 1777 228" width="1777px" zoomAndPan="magnify"><title>Retention Graph Archetypes</title><defs/><g><g class="title" data-source-line="2"><text fill="#000000" font-family="Verdana" font-size="22" font-weight="bold" lengthAdjust="spacing" textLength="352.3975" x="707.8013" y="35.4209">Retention Graph Archetypes</text></g><!--cluster Failure States--><g class="cluster" data-qualified-name="Failure States" data-source-line="4" id="ent0002"><path d="M13.5,57.6094 L125.0918,57.6094 A3.75,3.75 0 0 1 127.5918,60.1094 L134.5918,79.9063 L838.5,79.9063 A2.5,2.5 0 0 1 841,82.4063 L841,219.4094 A2.5,2.5 0 0 1 838.5,221.9094 L13.5,221.9094 A2.5,2.5 0 0 1 11,219.4094 L11,60.1094 A2.5,2.5 0 0 1 13.5,57.6094" fill="#FFFFFF" style="stroke:#000000;stroke-width:1;"/><line style="stroke:#000000;stroke-width:1;" x1="11" x2="134.5918" y1="79.9063" y2="79.9063"/><text fill="#000000" font-family="Verdana" font-size="14" font-weight="bold" lengthAdjust="spacing" textLength="110.5918" x="15" y="72.6045">Failure States</text></g><!--cluster L--><g class="cluster" data-qualified-name="Failure States.L" data-source-line="5" id="ent0003"><rect fill="#FFFFFF" height="97.3" rx="2.5" ry="2.5" style="stroke:#000000;stroke-width:1;" width="385" x="35" y="100.6094"/><rect fill="#FFFFFF" height="10" style="stroke:#000000;stroke-width:1;" width="15" x="400" y="105.6094"/><rect fill="#FFFFFF" height="2" style="stroke:#000000;stroke-width:1;" width="4" x="398" y="107.6094"/><rect fill="#FFFFFF" height="2" style="stroke:#000000;stroke-width:1;" width="4" x="398" y="111.6094"/><text fill="#000000" font-family="Verdana" font-size="14" font-weight="bold" lengthAdjust="spacing" textLength="102.0195" x="176.4902" y="126.6045">The 'L' Curve</text></g><!--cluster Linear--><g class="cluster" data-qualified-name="Failure States.Linear" data-source-line="10" id="ent0010"><rect fill="#FFFFFF" height="97.3" rx="2.5" ry="2.5" style="stroke:#000000;stroke-width:1;" width="373" x="444" y="100.6094"/><rect fill="#FFFFFF" height="10" style="stroke:#000000;stroke-width:1;" width="15" x="797" y="105.6094"/><rect fill="#FFFFFF" height="2" style="stroke:#000000;stroke-width:1;" width="4" x="795" y="107.6094"/><rect fill="#FFFFFF" height="2" style="stroke:#000000;stroke-width:1;" width="4" x="795" y="111.6094"/><text fill="#000000" font-family="Verdana" font-size="14" font-weight="bold" lengthAdjust="spacing" textLength="102.3955" x="579.3022" y="126.6045">Linear Decay</text></g><!--cluster Success States--><g class="cluster" data-qualified-name="Success States" data-source-line="16" id="ent0017"><path d="M867.5,57.6094 L986.9258,57.6094 A3.75,3.75 0 0 1 989.4258,60.1094 L996.4258,79.9063 L1767.5,79.9063 A2.5,2.5 0 0 1 1770,82.4063 L1770,219.4094 A2.5,2.5 0 0 1 1767.5,221.9094 L867.5,221.9094 A2.5,2.5 0 0 1 865,219.4094 L865,60.1094 A2.5,2.5 0 0 1 867.5,57.6094" fill="#FFFFFF" style="stroke:#000000;stroke-width:1;"/><line style="stroke:#000000;stroke-width:1;" x1="865" x2="996.4258" y1="79.9063" y2="79.9063"/><text fill="#000000" font-family="Verdana" font-size="14" font-weight="bold" lengthAdjust="spacing" textLength="118.4258" x="869" y="72.6045">Success States</text></g><!--cluster Hockey--><g class="cluster" data-qualified-name="Success States.Hockey" data-source-line="17" id="ent0018"><rect fill="#FFFFFF" height="97.3" rx="2.5" ry="2.5" style="stroke:#000000;stroke-width:1;" width="416" x="889" y="100.6094"/><rect fill="#FFFFFF" height="10" style="stroke:#000000;stroke-width:1;" width="15" x="1285" y="105.6094"/><rect fill="#FFFFFF" height="2" style="stroke:#000000;stroke-width:1;" width="4" x="1283" y="107.6094"/><rect fill="#FFFFFF" height="2" style="stroke:#000000;stroke-width:1;" width="4" x="1283" y="111.6094"/><text fill="#000000" font-family="Verdana" font-size="14" font-weight="bold" lengthAdjust="spacing" textLength="101.623" x="1046.1885" y="126.6045">Hockey Stick</text></g><!--cluster Step--><g class="cluster" data-qualified-name="Success States.Step" data-source-line="22" id="ent0025"><rect fill="#FFFFFF" height="97.3" rx="2.5" ry="2.5" style="stroke:#000000;stroke-width:1;" width="417" x="1329" y="100.6094"/><rect fill="#FFFFFF" height="10" style="stroke:#000000;stroke-width:1;" width="15" x="1726" y="105.6094"/><rect fill="#FFFFFF" height="2" style="stroke:#000000;stroke-width:1;" width="4" x="1724" y="107.6094"/><rect fill="#FFFFFF" height="2" style="stroke:#000000;stroke-width:1;" width="4" x="1724" y="111.6094"/><text fill="#000000" font-family="Verdana" font-size="14" font-weight="bold" lengthAdjust="spacing" textLength="113.2168" x="1480.8916" y="126.6045">The Step Drop</text></g><!--entity Drop 0-5s--><g class="entity" data-qualified-name="Failure States.L.Drop 0-5s" data-source-line="6" id="ent0004"><rect fill="#FFFFFF" height="46.2969" rx="2.5" ry="2.5" style="stroke:#000000;stroke-width:1;" width="108.5986" x="50.7" y="135.6094"/><rect fill="#FFFFFF" height="10" style="stroke:#000000;stroke-width:1;" width="15" x="139.2986" y="140.6094"/><rect fill="#FFFFFF" height="2" style="stroke:#000000;stroke-width:1;" width="4" x="137.2986" y="142.6094"/><rect fill="#FFFFFF" height="2" style="stroke:#000000;stroke-width:1;" width="4" x="137.2986" y="146.6094"/><text fill="#000000" font-family="Verdana" font-size="14" lengthAdjust="spacing" textLength="68.5986" x="65.7" y="168.6045">Drop 0-5s</text></g><!--entity Flatline--><g class="entity" data-qualified-name="Failure States.L.Flatline" data-source-line="6" id="ent0005"><rect fill="#FFFFFF" height="46.2969" rx="2.5" ry="2.5" style="stroke:#000000;stroke-width:1;" width="91.2764" x="194.36" y="135.6094"/><rect fill="#FFFFFF" height="10" style="stroke:#000000;stroke-width:1;" width="15" x="265.6364" y="140.6094"/><rect fill="#FFFFFF" height="2" style="stroke:#000000;stroke-width:1;" width="4" x="263.6364" y="142.6094"/><rect fill="#FFFFFF" height="2" style="stroke:#000000;stroke-width:1;" width="4" x="263.6364" y="146.6094"/><text fill="#000000" font-family="Verdana" font-size="14" lengthAdjust="spacing" textLength="51.2764" x="209.36" y="168.6045">Flatline</text></g><g class="entity" data-qualified-name="Failure States.L.GMN7" data-source-line="7" id="ent0008"><path d="M320.26,146.1994 L320.26,154.7594 L285.75,158.7594 L320.26,162.7594 L320.26,171.3322 A0,0 0 0 0 320.26,171.3322 L403.74,171.3322 A0,0 0 0 0 403.74,171.3322 L403.74,156.1994 L393.74,146.1994 L320.26,146.1994 A0,0 0 0 0 320.26,146.1994" fill="#FFFFFF" style="stroke:#000000;stroke-width:1;"/><path d="M393.74,146.1994 L393.74,156.1994 L403.74,156.1994 L393.74,146.1994" fill="#FFFFFF" style="stroke:#000000;stroke-width:1;"/><text fill="#000000" font-family="Verdana" font-size="13" lengthAdjust="spacing" textLength="62.48" x="326.26" y="163.2663">Bad Hook</text></g><!--entity 100%--><g class="entity" data-qualified-name="Failure States.Linear.100." data-source-line="11" id="ent0011"><rect fill="#FFFFFF" height="46.2969" rx="2.5" ry="2.5" style="stroke:#000000;stroke-width:1;" width="80.0244" x="459.99" y="135.6094"/><rect fill="#FFFFFF" height="10" style="stroke:#000000;stroke-width:1;" width="15" x="520.0144" y="140.6094"/><rect fill="#FFFFFF" height="2" style="stroke:#000000;stroke-width:1;" width="4" x="518.0144" y="142.6094"/><rect fill="#FFFFFF" height="2" style="stroke:#000000;stroke-width:1;" width="4" x="518.0144" y="146.6094"/><text fill="#000000" font-family="Verdana" font-size="14" lengthAdjust="spacing" textLength="40.0244" x="474.99" y="168.6045">100%</text></g><!--entity 40%--><g class="entity" data-qualified-name="Failure States.Linear.40." data-source-line="11" id="ent0012"><rect fill="#FFFFFF" height="46.2969" rx="2.5" ry="2.5" style="stroke:#000000;stroke-width:1;" width="71.1172" x="575.44" y="135.6094"/><rect fill="#FFFFFF" height="10" style="stroke:#000000;stroke-width:1;" width="15" x="626.5572" y="140.6094"/><rect fill="#FFFFFF" height="2" style="stroke:#000000;stroke-width:1;" width="4" x="624.5572" y="142.6094"/><rect fill="#FFFFFF" height="2" style="stroke:#000000;stroke-width:1;" width="4" x="624.5572" y="146.6094"/><text fill="#000000" font-family="Verdana" font-size="14" lengthAdjust="spacing" textLength="31.1172" x="590.44" y="168.6045">40%</text></g><g class="entity" data-qualified-name="Failure States.Linear.GMN14" data-source-line="12" id="ent0015"><path d="M681.49,146.1994 L681.49,154.7594 L647.05,158.7594 L681.49,162.7594 L681.49,171.3322 A0,0 0 0 0 681.49,171.3322 L800.5105,171.3322 A0,0 0 0 0 800.5105,171.3322 L800.5105,156.1994 L790.5105,146.1994 L681.49,146.1994 A0,0 0 0 0 681.49,146.1994" fill="#FFFFFF" style="stroke:#000000;stroke-width:1;"/><path d="M790.5105,146.1994 L790.5105,156.1994 L800.5105,156.1994 L790.5105,146.1994" fill="#FFFFFF" style="stroke:#000000;stroke-width:1;"/><text fill="#000000" font-family="Verdana" font-size="13" lengthAdjust="spacing" textLength="98.0205" x="687.49" y="163.2663">Boring / Pacing</text></g><!--entity Dip--><g class="entity" data-qualified-name="Success States.Hockey.Dip" data-source-line="18" id="ent0019"><rect fill="#FFFFFF" height="46.2969" rx="2.5" ry="2.5" style="stroke:#000000;stroke-width:1;" width="63.5566" x="905.22" y="135.6094"/><rect fill="#FFFFFF" height="10" style="stroke:#000000;stroke-width:1;" width="15" x="948.7766" y="140.6094"/><rect fill="#FFFFFF" height="2" style="stroke:#000000;stroke-width:1;" width="4" x="946.7766" y="142.6094"/><rect fill="#FFFFFF" height="2" style="stroke:#000000;stroke-width:1;" width="4" x="946.7766" y="146.6094"/><text fill="#000000" font-family="Verdana" font-size="14" lengthAdjust="spacing" textLength="23.5566" x="920.22" y="168.6045">Dip</text></g><!--entity Rise > 100%--><g class="entity" data-qualified-name="Success States.Hockey.Rise . 100." data-source-line="18" id="ent0020"><rect fill="#FFFFFF" height="46.2969" rx="2.5" ry="2.5" style="stroke:#000000;stroke-width:1;" width="130.1797" x="1003.91" y="135.6094"/><rect fill="#FFFFFF" height="10" style="stroke:#000000;stroke-width:1;" width="15" x="1114.0897" y="140.6094"/><rect fill="#FFFFFF" height="2" style="stroke:#000000;stroke-width:1;" width="4" x="1112.0897" y="142.6094"/><rect fill="#FFFFFF" height="2" style="stroke:#000000;stroke-width:1;" width="4" x="1112.0897" y="146.6094"/><text fill="#000000" font-family="Verdana" font-size="14" lengthAdjust="spacing" textLength="90.1797" x="1018.91" y="168.6045">Rise &gt; 100%</text></g><g class="entity" data-qualified-name="Success States.Hockey.GMN22" data-source-line="19" id="ent0023"><path d="M1168.68,146.1994 L1168.68,154.7594 L1134.31,158.7594 L1168.68,162.7594 L1168.68,171.3322 A0,0 0 0 0 1168.68,171.3322 L1289.3192,171.3322 A0,0 0 0 0 1289.3192,171.3322 L1289.3192,156.1994 L1279.3192,146.1994 L1168.68,146.1994 A0,0 0 0 0 1168.68,146.1994" fill="#FFFFFF" style="stroke:#000000;stroke-width:1;"/><path d="M1279.3192,146.1994 L1279.3192,156.1994 L1289.3192,156.1994 L1279.3192,146.1994" fill="#FFFFFF" style="stroke:#000000;stroke-width:1;"/><text fill="#000000" font-family="Verdana" font-size="13" lengthAdjust="spacing" textLength="99.6392" x="1174.68" y="163.2663">High Loop Rate</text></g><!--entity Flat--><g class="entity" data-qualified-name="Success States.Step.Flat" data-source-line="23" id="ent0026"><rect fill="#FFFFFF" height="46.2969" rx="2.5" ry="2.5" style="stroke:#000000;stroke-width:1;" width="66.0107" x="1344.99" y="135.6094"/><rect fill="#FFFFFF" height="10" style="stroke:#000000;stroke-width:1;" width="15" x="1391.0007" y="140.6094"/><rect fill="#FFFFFF" height="2" style="stroke:#000000;stroke-width:1;" width="4" x="1389.0007" y="142.6094"/><rect fill="#FFFFFF" height="2" style="stroke:#000000;stroke-width:1;" width="4" x="1389.0007" y="146.6094"/><text fill="#000000" font-family="Verdana" font-size="14" lengthAdjust="spacing" textLength="26.0107" x="1359.99" y="168.6045">Flat</text></g><!--entity Vertical Drop 50s--><g class="entity" data-qualified-name="Success States.Step.Vertical Drop 50s" data-source-line="23" id="ent0027"><rect fill="#FFFFFF" height="46.2969" rx="2.5" ry="2.5" style="stroke:#000000;stroke-width:1;" width="161.4883" x="1446.26" y="135.6094"/><rect fill="#FFFFFF" height="10" style="stroke:#000000;stroke-width:1;" width="15" x="1587.7483" y="140.6094"/><rect fill="#FFFFFF" height="2" style="stroke:#000000;stroke-width:1;" width="4" x="1585.7483" y="142.6094"/><rect fill="#FFFFFF" height="2" style="stroke:#000000;stroke-width:1;" width="4" x="1585.7483" y="146.6094"/><text fill="#000000" font-family="Verdana" font-size="14" lengthAdjust="spacing" textLength="121.4883" x="1461.26" y="168.6045">Vertical Drop 50s</text></g><g class="entity" data-qualified-name="Success States.Step.GMN29" data-source-line="24" id="ent0030"><path d="M1642.43,146.1994 L1642.43,154.7594 L1608.05,158.7594 L1642.43,162.7594 L1642.43,171.3322 A0,0 0 0 0 1642.43,171.3322 L1729.5662,171.3322 A0,0 0 0 0 1729.5662,171.3322 L1729.5662,156.1994 L1719.5662,146.1994 L1642.43,146.1994 A0,0 0 0 0 1642.43,146.1994" fill="#FFFFFF" style="stroke:#000000;stroke-width:1;"/><path d="M1719.5662,146.1994 L1719.5662,156.1994 L1729.5662,156.1994 L1719.5662,146.1994" fill="#FFFFFF" style="stroke:#000000;stroke-width:1;"/><text fill="#000000" font-family="Verdana" font-size="13" lengthAdjust="spacing" textLength="66.1362" x="1648.43" y="163.2663">Bad Outro</text></g><!--link Drop 0-5s to Flatline--><g class="link" data-entity-1="ent0004" data-entity-2="ent0005" data-link-type="dependency" data-source-line="6" id="lnk6"><path d="M159.58,158.7594 C171.1,158.7594 176.62,158.7594 188.14,158.7594" fill="none" id="Drop 0-5s-to-Flatline" style="stroke:#000000;stroke-width:1;"/><polygon fill="#000000" points="194.14,158.7594,185.14,154.7594,189.14,158.7594,185.14,162.7594,194.14,158.7594" style="stroke:#000000;stroke-width:1;"/></g><!--link 100% to 40%--><g class="link" data-entity-1="ent0011" data-entity-2="ent0012" data-link-type="dependency" data-source-line="11" id="lnk13"><path d="M540.32,158.7594 C551.92,158.7594 557.51,158.7594 569.11,158.7594" fill="none" id="100%-to-40%" style="stroke:#000000;stroke-width:1;"/><polygon fill="#000000" points="575.11,158.7594,566.11,154.7594,570.11,158.7594,566.11,162.7594,575.11,158.7594" style="stroke:#000000;stroke-width:1;"/></g><!--link Dip to Rise > 100%--><g class="link" data-entity-1="ent0019" data-entity-2="ent0020" data-link-type="dependency" data-source-line="18" id="lnk21"><path d="M969.23,158.7594 C980.66,158.7594 986.09,158.7594 997.52,158.7594" fill="none" id="Dip-to-Rise &gt; 100%" style="stroke:#000000;stroke-width:1;"/><polygon fill="#000000" points="1003.52,158.7594,994.52,154.7594,998.52,158.7594,994.52,162.7594,1003.52,158.7594" style="stroke:#000000;stroke-width:1;"/></g><!--link Flat to Vertical Drop 50s--><g class="link" data-entity-1="ent0026" data-entity-2="ent0027" data-link-type="dependency" data-source-line="23" id="lnk28"><path d="M1411.47,158.7594 C1422.9,158.7594 1428.33,158.7594 1439.77,158.7594" fill="none" id="Flat-to-Vertical Drop 50s" style="stroke:#000000;stroke-width:1;"/><polygon fill="#000000" points="1445.77,158.7594,1436.77,154.7594,1440.77,158.7594,1436.77,162.7594,1445.77,158.7594" style="stroke:#000000;stroke-width:1;"/></g><?plantuml-src TP3FIyCm5CVl_Ik-5cIdOGLtyJ1Gn-oXe7JYPUpmY8yrj4j2yYeKsVzkbbPGDWyXoVlrUT_lbJHyOBYEjCb4IyUeMTY8jWRFdbo31wyQbi5no397ggKz8r-JxdhFs0W9XnnV6Q3imLaJUv6_DOnPDSDJxpyv1mLKgGJOhhnrAEQBiCDyYUsw8-cquLtA6YiCh_UDtEEHFb1QsyR4CPw_W2gsaCUA5GtZ_34mGMwBudgSVnSVvwEjrsQF6xoIYez4EFvIj-cLuX3-KrTQrV8Girgr2Ju5VXHgDx9h7HXBf6NETYZZXSf6C-e8kIZovE96sE7aMGAbtuGvEJTotjd7LQXBTLWKuRAPBxruEshz1W00?></g></svg>