<?plantuml 1.2026.2beta3?><svg xmlns="http://www.w3.org/2000/svg" xmlns:xlink="http://www.w3.org/1999/xlink" contentStyleType="text/css" data-diagram-type="ACTIVITY" height="512px" preserveAspectRatio="none" style="width:365px;height:512px;background:#FFFFFF;" version="1.1" viewBox="0 0 365 512" width="365px" zoomAndPan="magnify"><defs/><g><ellipse cx="182.9863" cy="15" fill="#FFFFFF" rx="10" ry="10" style="stroke:#000000;stroke-width:1;"/><rect fill="#FFFFFF" height="33.9688" rx="12.5" ry="12.5" style="stroke:#000000;stroke-width:1;" width="120.834" x="122.5693" y="45"/><text fill="#000000" font-family="Verdana" font-size="12" lengthAdjust="spacing" textLength="100.834" x="132.5693" y="66.1387">Channel Created</text><rect fill="#000000" height="6" rx="2.5" ry="2.5" style="stroke:#000000;stroke-width:1;" width="353.9727" x="6" y="98.9688"/><rect fill="#FFFFFF" height="33.9688" rx="12.5" ry="12.5" style="stroke:#000000;stroke-width:1;" width="143.7676" x="18" y="124.9688"/><text fill="#000000" font-family="Verdana" font-size="12" lengthAdjust="spacing" textLength="123.7676" x="28" y="146.1074">Post Quality Content</text><rect fill="#FFFFFF" height="33.9688" rx="12.5" ry="12.5" style="stroke:#000000;stroke-width:1;" width="94.9531" x="42.4072" y="178.9375"/><text fill="#000000" font-family="Verdana" font-size="12" lengthAdjust="spacing" textLength="74.9531" x="52.4072" y="200.0762">High Metrics</text><rect fill="#FFFFFF" height="33.9688" rx="12.5" ry="12.5" style="stroke:#000000;stroke-width:1;" width="112.4375" x="33.665" y="232.9063"/><text fill="#000000" font-family="Verdana" font-size="12" lengthAdjust="spacing" textLength="92.4375" x="43.665" y="254.0449">Trust Score ++</text><rect fill="#FFFFFF" height="33.9688" rx="12.5" ry="12.5" style="stroke:#000000;stroke-width:1;" width="158.2051" x="189.7676" y="124.9688"/><text fill="#000000" font-family="Verdana" font-size="12" lengthAdjust="spacing" textLength="138.2051" x="199.7676" y="146.1074">Post Spam/Low Quality</text><rect fill="#FFFFFF" height="33.9688" rx="12.5" ry="12.5" style="stroke:#000000;stroke-width:1;" width="123.9688" x="206.8857" y="178.9375"/><text fill="#000000" font-family="Verdana" font-size="12" lengthAdjust="spacing" textLength="103.9688" x="216.8857" y="200.0762">High Swipe-Away</text><rect fill="#FFFFFF" height="33.9688" rx="12.5" ry="12.5" style="stroke:#000000;stroke-width:1;" width="100.9883" x="218.376" y="232.9063"/><text fill="#000000" font-family="Verdana" font-size="12" lengthAdjust="spacing" textLength="80.9883" x="228.376" y="254.0449">Trust Score --</text><rect fill="#000000" height="6" rx="2.5" ry="2.5" style="stroke:#000000;stroke-width:1;" width="353.9727" x="6" y="286.875"/><polygon fill="#FFFFFF" points="116.2532,312.875,249.7195,312.875,261.7195,324.875,249.7195,336.875,116.2532,336.875,104.2532,324.875,116.2532,312.875" style="stroke:#000000;stroke-width:1;"/><text fill="#000000" font-family="Verdana" font-size="11" lengthAdjust="spacing" textLength="133.4663" x="116.2532" y="328.6831">Trust Score &gt; Threshold</text><text fill="#000000" font-family="Verdana" font-size="11" lengthAdjust="spacing" textLength="19.0083" x="85.2449" y="322.2808">yes</text><text fill="#000000" font-family="Verdana" font-size="11" lengthAdjust="spacing" textLength="13.7017" x="261.7195" y="322.2808">no</text><rect fill="#FFFFFF" height="33.9688" rx="12.5" ry="12.5" style="stroke:#000000;stroke-width:1;" width="152.2988" x="18.1038" y="346.875"/><text fill="#000000" font-family="Verdana" font-size="12" lengthAdjust="spacing" textLength="132.2988" x="28.1038" y="368.0137">Unlock Larger Wave 1</text><rect fill="#FFFFFF" height="33.9688" rx="12.5" ry="12.5" style="stroke:#000000;stroke-width:1;" width="113.1465" x="37.6799" y="400.8438"/><text fill="#000000" font-family="Verdana" font-size="12" lengthAdjust="spacing" textLength="93.1465" x="47.6799" y="421.9824">Faster Indexing</text><rect fill="#FFFFFF" height="33.9688" rx="12.5" ry="12.5" style="stroke:#000000;stroke-width:1;" width="108.4297" x="217.5046" y="346.875"/><text fill="#000000" font-family="Verdana" font-size="12" lengthAdjust="spacing" textLength="88.4297" x="227.5046" y="368.0137">Throttle Reach</text><rect fill="#FFFFFF" height="33.9688" rx="12.5" ry="12.5" style="stroke:#000000;stroke-width:1;" width="141.0723" x="201.1833" y="400.8438"/><text fill="#000000" font-family="Verdana" font-size="12" lengthAdjust="spacing" textLength="121.0723" x="211.1833" y="421.9824">Strict Safety Checks</text><polygon fill="#FFFFFF" points="182.9863,440.8125,194.9863,452.8125,182.9863,464.8125,170.9863,452.8125,182.9863,440.8125" style="stroke:#000000;stroke-width:1;"/><ellipse cx="182.9863" cy="495.8125" fill="none" rx="11" ry="11" style="stroke:#000000;stroke-width:1;"/><ellipse cx="182.9863" cy="495.8125" fill="#FFFFFF" rx="6" ry="6" style="stroke:#000000;stroke-width:1;"/><line style="stroke:#000000;stroke-width:1;" x1="182.9863" x2="182.9863" y1="25" y2="45"/><polygon fill="#000000" points="178.9863,35,182.9863,45,186.9863,35,182.9863,39" style="stroke:#000000;stroke-width:1;"/><line style="stroke:#000000;stroke-width:1;" x1="89.8838" x2="89.8838" y1="158.9375" y2="178.9375"/><polygon fill="#000000" points="85.8838,168.9375,89.8838,178.9375,93.8838,168.9375,89.8838,172.9375" style="stroke:#000000;stroke-width:1;"/><line style="stroke:#000000;stroke-width:1;" x1="89.8838" x2="89.8838" y1="212.9063" y2="232.9063"/><polygon fill="#000000" points="85.8838,222.9063,89.8838,232.9063,93.8838,222.9063,89.8838,226.9063" style="stroke:#000000;stroke-width:1;"/><line style="stroke:#000000;stroke-width:1;" x1="268.8701" x2="268.8701" y1="158.9375" y2="178.9375"/><polygon fill="#000000" points="264.8701,168.9375,268.8701,178.9375,272.8701,168.9375,268.8701,172.9375" style="stroke:#000000;stroke-width:1;"/><line style="stroke:#000000;stroke-width:1;" x1="268.8701" x2="268.8701" y1="212.9063" y2="232.9063"/><polygon fill="#000000" points="264.8701,222.9063,268.8701,232.9063,272.8701,222.9063,268.8701,226.9063" style="stroke:#000000;stroke-width:1;"/><line style="stroke:#000000;stroke-width:1;" x1="89.8838" x2="89.8838" y1="104.9688" y2="124.9688"/><polygon fill="#000000" points="85.8838,114.9688,89.8838,124.9688,93.8838,114.9688,89.8838,118.9688" style="stroke:#000000;stroke-width:1;"/><line style="stroke:#000000;stroke-width:1;" x1="268.8701" x2="268.8701" y1="104.9688" y2="124.9688"/><polygon fill="#000000" points="264.8701,114.9688,268.8701,124.9688,272.8701,114.9688,268.8701,118.9688" style="stroke:#000000;stroke-width:1;"/><line style="stroke:#000000;stroke-width:1;" x1="89.8838" x2="89.8838" y1="266.875" y2="286.875"/><polygon fill="#000000" points="85.8838,276.875,89.8838,286.875,93.8838,276.875,89.8838,280.875" style="stroke:#000000;stroke-width:1;"/><line style="stroke:#000000;stroke-width:1;" x1="268.8701" x2="268.8701" y1="266.875" y2="286.875"/><polygon fill="#000000" points="264.8701,276.875,268.8701,286.875,272.8701,276.875,268.8701,280.875" style="stroke:#000000;stroke-width:1;"/><line style="stroke:#000000;stroke-width:1;" x1="182.9863" x2="182.9863" y1="78.9688" y2="98.9688"/><polygon fill="#000000" points="178.9863,88.9688,182.9863,98.9688,186.9863,88.9688,182.9863,92.9688" style="stroke:#000000;stroke-width:1;"/><line style="stroke:#000000;stroke-width:1;" x1="94.2532" x2="94.2532" y1="380.8438" y2="400.8438"/><polygon fill="#000000" points="90.2532,390.8438,94.2532,400.8438,98.2532,390.8438,94.2532,394.8438" style="stroke:#000000;stroke-width:1;"/><line style="stroke:#000000;stroke-width:1;" x1="271.7195" x2="271.7195" y1="380.8438" y2="400.8438"/><polygon fill="#000000" points="267.7195,390.8438,271.7195,400.8438,275.7195,390.8438,271.7195,394.8438" style="stroke:#000000;stroke-width:1;"/><line style="stroke:#000000;stroke-width:1;" x1="104.2532" x2="94.2532" y1="324.875" y2="324.875"/><line style="stroke:#000000;stroke-width:1;" x1="94.2532" x2="94.2532" y1="324.875" y2="346.875"/><polygon fill="#000000" points="90.2532,336.875,94.2532,346.875,98.2532,336.875,94.2532,340.875" style="stroke:#000000;stroke-width:1;"/><line style="stroke:#000000;stroke-width:1;" x1="261.7195" x2="271.7195" y1="324.875" y2="324.875"/><line style="stroke:#000000;stroke-width:1;" x1="271.7195" x2="271.7195" y1="324.875" y2="346.875"/><polygon fill="#000000" points="267.7195,336.875,271.7195,346.875,275.7195,336.875,271.7195,340.875" style="stroke:#000000;stroke-width:1;"/><line style="stroke:#000000;stroke-width:1;" x1="94.2532" x2="94.2532" y1="434.8125" y2="452.8125"/><line style="stroke:#000000;stroke-width:1;" x1="94.2532" x2="170.9863" y1="452.8125" y2="452.8125"/><polygon fill="#000000" points="160.9863,448.8125,170.9863,452.8125,160.9863,456.8125,164.9863,452.8125" style="stroke:#000000;stroke-width:1;"/><line style="stroke:#000000;stroke-width:1;" x1="271.7195" x2="271.7195" y1="434.8125" y2="452.8125"/><line style="stroke:#000000;stroke-width:1;" x1="271.7195" x2="194.9863" y1="452.8125" y2="452.8125"/><polygon fill="#000000" points="204.9863,448.8125,194.9863,452.8125,204.9863,456.8125,200.9863,452.8125" style="stroke:#000000;stroke-width:1;"/><line style="stroke:#000000;stroke-width:1;" x1="182.9863" x2="182.9863" y1="292.875" y2="312.875"/><polygon fill="#000000" points="178.9863,302.875,182.9863,312.875,186.9863,302.875,182.9863,306.875" style="stroke:#000000;stroke-width:1;"/><line style="stroke:#000000;stroke-width:1;" x1="182.9863" x2="182.9863" y1="464.8125" y2="484.8125"/><polygon fill="#000000" points="178.9863,474.8125,182.9863,484.8125,186.9863,474.8125,182.9863,478.8125" style="stroke:#000000;stroke-width:1;"/><?plantuml-src PT3TIyCm403mz_mLvrl7AEBh2e8KPCA4pKvyFj9h4vfTIdApzhytYGm5N-_ZTnztOkX2C3kqhA9W4BLh3JAJWpOG2lMD6doO5C3kwAF0wOhEoWgjPo6M9YVsTZJmIXAiZYLm3jTKscaV2BRR7m5mp4DkJZVZvVxWbnlu2tMBdQb-Md3zPzLreuXxA1ifEq3rD_i8PnCe6k_w3QJ36AgLuYOZx-oydk20OQG07_X9y53qPuoI8Y_SqvVbCV4k4bJiIrlol8WZU2FKfZHq-Seq4GVANp2afrYMiaDwe9-_0G00?></g></svg>