<?plantuml 1.2026.2beta3?><svg xmlns="http://www.w3.org/2000/svg" xmlns:xlink="http://www.w3.org/1999/xlink" contentStyleType="text/css" data-diagram-type="SEQUENCE" height="528px" preserveAspectRatio="none" style="width:729px;height:528px;background:#FFFFFF;" version="1.1" viewBox="0 0 729 528" width="729px" zoomAndPan="magnify"><defs/><g><rect fill="#FFFFFF" height="322.1328" style="stroke:#000000;stroke-width:1;" width="707.2598" x="15" y="153.6953"/><rect fill="#FFFFFF" height="204.6016" style="stroke:none;stroke-width:1;" width="707.2598" x="15" y="271.2266"/><rect fill="#FFFFFF" height="117.5313" style="stroke:#000000;stroke-width:1;" width="649.8618" x="25" y="351.2969"/><g class="participant-lifeline" data-entity-uid="part1" data-qualified-name="Viewer" id="part1-lifeline"><g><title>Viewer</title><rect fill="#000000" fill-opacity="0.00000" height="456.5313" width="8" x="71.9497" y="36.2969"/><line style="stroke:#000000;stroke-width:1;stroke-dasharray:5,5;" x1="75" x2="75" y1="36.2969" y2="492.8281"/></g></g><g class="participant-lifeline" data-entity-uid="part2" data-qualified-name="Client" id="part2-lifeline"><g><title>App Client</title><rect fill="#000000" fill-opacity="0.00000" height="456.5313" width="8" x="288.1226" y="36.2969"/><line style="stroke:#000000;stroke-width:1;stroke-dasharray:5,5;" x1="291.957" x2="291.957" y1="36.2969" y2="492.8281"/></g></g><g class="participant-lifeline" data-entity-uid="part3" data-qualified-name="Algo" id="part3-lifeline"><g><title>Algo Engine</title><rect fill="#000000" fill-opacity="0.00000" height="456.5313" width="8" x="503.8091" y="36.2969"/><line style="stroke:#000000;stroke-width:1;stroke-dasharray:5,5;" x1="507.1338" x2="507.1338" y1="36.2969" y2="492.8281"/></g></g><g class="participant participant-head" data-entity-uid="part1" data-qualified-name="Viewer" id="part1-head"><rect fill="#FFFFFF" height="30.2969" rx="2.5" ry="2.5" style="stroke:#000000;stroke-width:1;" width="61.8994" x="45" y="5"/><text fill="#000000" font-family="Verdana" font-size="14" lengthAdjust="spacing" textLength="47.8994" x="52" y="24.9951">Viewer</text></g><g class="participant participant-tail" data-entity-uid="part1" data-qualified-name="Viewer" id="part1-tail"><rect fill="#FFFFFF" height="30.2969" rx="2.5" ry="2.5" style="stroke:#000000;stroke-width:1;" width="61.8994" x="45" y="491.8281"/><text fill="#000000" font-family="Verdana" font-size="14" lengthAdjust="spacing" textLength="47.8994" x="52" y="511.8232">Viewer</text></g><g class="participant participant-head" data-entity-uid="part2" data-qualified-name="Client" id="part2-head"><rect fill="#FFFFFF" height="30.2969" rx="2.5" ry="2.5" style="stroke:#000000;stroke-width:1;" width="86.3311" x="248.957" y="5"/><text fill="#000000" font-family="Verdana" font-size="14" lengthAdjust="spacing" textLength="72.3311" x="255.957" y="24.9951">App Client</text></g><g class="participant participant-tail" data-entity-uid="part2" data-qualified-name="Client" id="part2-tail"><rect fill="#FFFFFF" height="30.2969" rx="2.5" ry="2.5" style="stroke:#000000;stroke-width:1;" width="86.3311" x="248.957" y="491.8281"/><text fill="#000000" font-family="Verdana" font-size="14" lengthAdjust="spacing" textLength="72.3311" x="255.957" y="511.8232">App Client</text></g><g class="participant participant-head" data-entity-uid="part3" data-qualified-name="Algo" id="part3-head"><rect fill="#FFFFFF" height="30.2969" rx="2.5" ry="2.5" style="stroke:#000000;stroke-width:1;" width="97.3506" x="459.1338" y="5"/><text fill="#000000" font-family="Verdana" font-size="14" lengthAdjust="spacing" textLength="83.3506" x="466.1338" y="24.9951">Algo Engine</text></g><g class="participant participant-tail" data-entity-uid="part3" data-qualified-name="Algo" id="part3-tail"><rect fill="#FFFFFF" height="30.2969" rx="2.5" ry="2.5" style="stroke:#000000;stroke-width:1;" width="97.3506" x="459.1338" y="491.8281"/><text fill="#000000" font-family="Verdana" font-size="14" lengthAdjust="spacing" textLength="83.3506" x="466.1338" y="511.8232">Algo Engine</text></g><g class="message" data-entity-1="part1" data-entity-2="part2" id="msg1"><polygon fill="#000000" points="280.1226,63.4297,290.1226,67.4297,280.1226,71.4297,284.1226,67.4297" style="stroke:#000000;stroke-width:1;"/><line style="stroke:#000000;stroke-width:1;" x1="75.9497" x2="286.1226" y1="67.4297" y2="67.4297"/><text fill="#000000" font-family="Verdana" font-size="13" lengthAdjust="spacing" textLength="78.5522" x="82.9497" y="62.3638">Scrolls Feed</text></g><g class="message" data-entity-1="part2" data-entity-2="part1" id="msg2"><polygon fill="#000000" points="86.9497,92.5625,76.9497,96.5625,86.9497,100.5625,82.9497,96.5625" style="stroke:#000000;stroke-width:1;"/><line style="stroke:#000000;stroke-width:1;" x1="80.9497" x2="291.1226" y1="96.5625" y2="96.5625"/><text fill="#000000" font-family="Verdana" font-size="13" lengthAdjust="spacing" textLength="176.3188" x="92.9497" y="91.4966">Auto-plays Short (Frame 0)</text></g><g class="message" data-entity-1="part1" data-entity-2="part1" id="msg3"><line style="stroke:#000000;stroke-width:1;" x1="75.9497" x2="117.9497" y1="125.6953" y2="125.6953"/><line style="stroke:#000000;stroke-width:1;" x1="117.9497" x2="117.9497" y1="125.6953" y2="138.6953"/><line style="stroke:#000000;stroke-width:1;" x1="76.9497" x2="117.9497" y1="138.6953" y2="138.6953"/><polygon fill="#000000" points="86.9497,134.6953,76.9497,138.6953,86.9497,142.6953,82.9497,138.6953" style="stroke:#000000;stroke-width:1;"/><text fill="#000000" font-family="Verdana" font-size="13" lengthAdjust="spacing" textLength="202.1729" x="82.9497" y="120.6294">Cognitive Assessment (200ms)</text></g><path d="M296.1729,113.0625 L296.1729,138.0625 L506.1729,138.0625 L506.1729,123.0625 L496.1729,113.0625 L296.1729,113.0625" fill="#FFFFFF" style="stroke:#000000;stroke-width:1;"/><path d="M496.1729,113.0625 L496.1729,123.0625 L506.1729,123.0625 L496.1729,113.0625" fill="#FFFFFF" style="stroke:#000000;stroke-width:1;"/><text fill="#000000" font-family="Verdana" font-size="13" lengthAdjust="spacing" textLength="189.8647" x="302.1729" y="130.1294">"Is this sensorially pleasing?"</text><path d="M15,153.6953 L79.4429,153.6953 L79.4429,160.8281 L69.4429,170.8281 L15,170.8281 L15,153.6953" fill="#FFFFFF" style="stroke:#000000;stroke-width:1;"/><rect fill="none" height="322.1328" style="stroke:#000000;stroke-width:1;" width="707.2598" x="15" y="153.6953"/><text fill="#000000" font-family="Verdana" font-size="13" font-weight="bold" lengthAdjust="spacing" textLength="19.4429" x="30" y="166.7622">alt</text><text fill="#000000" font-family="Verdana" font-size="11" font-weight="bold" lengthAdjust="spacing" textLength="189.3203" x="94.4429" y="165.9058">[Immediate Swipe (Rejection)]</text><g class="message" data-entity-1="part1" data-entity-2="part2" id="msg5"><polygon fill="#000000" points="280.1226,187.9609,290.1226,191.9609,280.1226,195.9609,284.1226,191.9609" style="stroke:#000000;stroke-width:1;"/><line style="stroke:#000000;stroke-width:1;" x1="75.9497" x2="286.1226" y1="191.9609" y2="191.9609"/><text fill="#000000" font-family="Verdana" font-size="13" lengthAdjust="spacing" textLength="125.0488" x="82.9497" y="186.895">Swipes Away (&lt;3s)</text></g><g class="message" data-entity-1="part2" data-entity-2="part3" id="msg6"><polygon fill="#000000" points="495.8091,217.0938,505.8091,221.0938,495.8091,225.0938,499.8091,221.0938" style="stroke:#000000;stroke-width:1;"/><line style="stroke:#000000;stroke-width:1;" x1="292.1226" x2="501.8091" y1="221.0938" y2="221.0938"/><text fill="#000000" font-family="Verdana" font-size="13" lengthAdjust="spacing" textLength="191.6865" x="299.1226" y="216.0278">Signal: Negative [VVSA Drop]</text></g><g class="message" data-entity-1="part3" data-entity-2="part3" id="msg7"><line style="stroke:#000000;stroke-width:1;" x1="507.8091" x2="549.8091" y1="250.2266" y2="250.2266"/><line style="stroke:#000000;stroke-width:1;" x1="549.8091" x2="549.8091" y1="250.2266" y2="263.2266"/><line style="stroke:#000000;stroke-width:1;" x1="508.8091" x2="549.8091" y1="263.2266" y2="263.2266"/><polygon fill="#000000" points="518.8091,259.2266,508.8091,263.2266,518.8091,267.2266,514.8091,263.2266" style="stroke:#000000;stroke-width:1;"/><text fill="#000000" font-family="Verdana" font-size="13" lengthAdjust="spacing" textLength="195.4507" x="514.8091" y="245.1606">Downgrade Distribution Score</text></g><line style="stroke:#000000;stroke-width:1;stroke-dasharray:2,2;" x1="15" x2="722.2598" y1="272.2266" y2="272.2266"/><text fill="#000000" font-family="Verdana" font-size="11" font-weight="bold" lengthAdjust="spacing" textLength="127.8965" x="20" y="282.437">[Watch &gt; Threshold]</text><g class="message" data-entity-1="part1" data-entity-2="part2" id="msg8"><polygon fill="#000000" points="280.1226,303.1641,290.1226,307.1641,280.1226,311.1641,284.1226,307.1641" style="stroke:#000000;stroke-width:1;"/><line style="stroke:#000000;stroke-width:1;" x1="75.9497" x2="286.1226" y1="307.1641" y2="307.1641"/><text fill="#000000" font-family="Verdana" font-size="13" lengthAdjust="spacing" textLength="90.2764" x="82.9497" y="302.0981">Watches &gt; 3s</text></g><g class="message" data-entity-1="part2" data-entity-2="part3" id="msg9"><polygon fill="#000000" points="495.8091,332.2969,505.8091,336.2969,495.8091,340.2969,499.8091,336.2969" style="stroke:#000000;stroke-width:1;"/><line style="stroke:#000000;stroke-width:1;" x1="292.1226" x2="501.8091" y1="336.2969" y2="336.2969"/><text fill="#000000" font-family="Verdana" font-size="13" lengthAdjust="spacing" textLength="151.3853" x="299.1226" y="331.231">Signal: Neutral/Positive</text></g><path d="M25,351.2969 L89.4429,351.2969 L89.4429,358.4297 L79.4429,368.4297 L25,368.4297 L25,351.2969" fill="#FFFFFF" style="stroke:#000000;stroke-width:1;"/><rect fill="none" height="117.5313" style="stroke:#000000;stroke-width:1;" width="649.8618" x="25" y="351.2969"/><text fill="#000000" font-family="Verdana" font-size="13" font-weight="bold" lengthAdjust="spacing" textLength="19.4429" x="40" y="364.3638">alt</text><text fill="#000000" font-family="Verdana" font-size="11" font-weight="bold" lengthAdjust="spacing" textLength="127.1069" x="104.4429" y="363.5073">[Engagement Event]</text><g class="message" data-entity-1="part1" data-entity-2="part2" id="msg10"><polygon fill="#000000" points="280.1226,385.5625,290.1226,389.5625,280.1226,393.5625,284.1226,389.5625" style="stroke:#000000;stroke-width:1;"/><line style="stroke:#000000;stroke-width:1;" x1="75.9497" x2="286.1226" y1="389.5625" y2="389.5625"/><text fill="#000000" font-family="Verdana" font-size="13" lengthAdjust="spacing" textLength="131.3711" x="82.9497" y="384.4966">Watch to End / Loop</text></g><g class="message" data-entity-1="part2" data-entity-2="part3" id="msg11"><polygon fill="#000000" points="495.8091,414.6953,505.8091,418.6953,495.8091,422.6953,499.8091,418.6953" style="stroke:#000000;stroke-width:1;"/><line style="stroke:#000000;stroke-width:1;" x1="292.1226" x2="501.8091" y1="418.6953" y2="418.6953"/><text fill="#000000" font-family="Verdana" font-size="13" lengthAdjust="spacing" textLength="178.6992" x="299.1226" y="413.6294">Signal: Positive [APV Spike]</text></g><g class="message" data-entity-1="part3" data-entity-2="part3" id="msg12"><line style="stroke:#000000;stroke-width:1;" x1="507.8091" x2="549.8091" y1="447.8281" y2="447.8281"/><line style="stroke:#000000;stroke-width:1;" x1="549.8091" x2="549.8091" y1="447.8281" y2="460.8281"/><line style="stroke:#000000;stroke-width:1;" x1="508.8091" x2="549.8091" y1="460.8281" y2="460.8281"/><polygon fill="#000000" points="518.8091,456.8281,508.8091,460.8281,518.8091,464.8281,514.8091,460.8281" style="stroke:#000000;stroke-width:1;"/><text fill="#000000" font-family="Verdana" font-size="13" lengthAdjust="spacing" textLength="148.0527" x="514.8091" y="442.7622">Upgrade to Next Wave</text></g><?plantuml-src XP91J-Cm48Nl_XLlUseFY0fkrQghY8A4X10YIpaW3jvcvCokOriUbz9_Z-E60XNLMagKED_CU_ES7wcbZX2iPgU2ZebN7BHBM39jA7xP6bKXuC8okJI2bk7n0B76uz8PTbIO_bsfNJESp8SQp52lehTMS4NKg64tVn_86QfryYVPrbPGjpucZA-Ypawdaq_TzlI5DuuJln0g4HBf-dRZi-cqauboFX4YcpRDCBeMf9O5GavyP6tjDazFMjYPNoEbj4suxZfgMEUgUiE1CBwdlxHAxDr48Q_lnkd1FEv6Rp7-UIuxy6Ekaal6s3XjPxWbeulTf-Mohh28FZoNYi9zy0k_SIRgXh1WIP7_h7iNEJmVIP4LmgDEgnPp_6uZIUjjSynX0RF5ESxbV-RMAMfxUkUbP5heSkl3oOUh3PM0Br_wyyUmZcaYzNz4WrFSU1_s-57vTrayLNTBr87_qVE-wY2VXx1B9qlSqclAWeDTSetArni0?></g></svg>